<?xml version="1.0" standalone="no"?>
<!DOCTYPE svg PUBLIC "-//W3C//DTD SVG 20010904//EN"
 "http://www.w3.org/TR/2001/REC-SVG-20010904/DTD/svg10.dtd">
<svg version="1.0" xmlns="http://www.w3.org/2000/svg"
 width="287.000000pt" height="287.000000pt" viewBox="0 0 287.000000 287.000000"
 preserveAspectRatio="xMidYMid meet">
<metadata>
Created by potrace 1.11, written by Peter Selinger 2001-2013
</metadata>
<g transform="translate(0.000000,287.000000) scale(0.100000,-0.100000)"
fill="#000000" stroke="none">
<path d="M1275 2726 c-157 -40 -250 -88 -362 -182 -103 -88 -198 -242 -233
-378 -29 -113 -46 -394 -32 -514 20 -169 79 -325 182 -477 110 -163 350 -401
350 -347 0 5 -36 41 -80 81 -265 240 -412 512 -427 792 -7 112 12 368 33 454
34 143 147 313 267 402 60 44 137 88 137 79 0 -3 -16 -32 -35 -65 -113 -192
-182 -439 -194 -695 l-6 -130 -82 112 c-75 102 -103 130 -103 102 0 -5 44 -70
98 -142 l98 -133 17 -99 c38 -214 152 -491 286 -695 76 -115 96 -113 57 6
-100 306 -171 685 -164 881 l3 92 137 -132 137 -133 11 -395 c7 -217 14 -401
16 -409 3 -10 8 -11 15 -4 8 8 8 119 -1 392 -8 244 -9 386 -3 394 71 91 266
327 270 327 3 0 3 -82 0 -182 -7 -186 -39 -505 -76 -747 -24 -157 -25 -174 -8
-169 28 10 110 705 120 1025 l2 73 110 -135 c61 -75 112 -143 113 -151 8 -36
-33 -229 -78 -365 -26 -80 -76 -206 -110 -280 -34 -74 -64 -140 -67 -146 -3
-7 1 -13 9 -13 9 0 37 47 70 117 102 217 169 419 194 588 8 55 17 106 19 113
2 7 39 55 82 108 l78 95 3 -88 c10 -277 -133 -645 -334 -862 -57 -62 -62 -71
-40 -71 20 0 107 100 172 196 146 219 234 496 234 739 l0 90 99 -99 99 -99 21
39 20 39 1 -30 c2 -138 -55 -341 -130 -462 -89 -144 -246 -290 -392 -364 -32
-16 -58 -34 -58 -39 0 -50 251 116 364 241 109 120 189 275 223 434 23 102 22
335 -1 455 -65 337 -233 576 -491 700 -142 69 -201 82 -390 86 -143 3 -170 1
-250 -20z m88 -48 c-45 -127 -54 -380 -27 -762 8 -125 14 -233 12 -241 -2 -10
-47 27 -133 108 l-130 124 24 124 c71 372 153 602 239 669 13 11 26 20 27 20
2 0 -4 -19 -12 -42z m139 -100 c68 -172 111 -311 137 -438 38 -189 47 -155
-90 -326 -66 -82 -131 -159 -143 -172 l-23 -23 -14 213 c-18 276 -18 682 0
761 39 172 60 170 133 -15z m81 111 c153 -126 309 -553 343 -933 l7 -80 -30
35 c-16 19 -68 82 -116 141 l-87 106 -19 114 c-26 148 -78 328 -146 500 -30
77 -55 141 -55 144 0 2 15 4 33 4 22 0 45 -10 70 -31z m172 4 c148 -38 316
-144 410 -259 126 -156 225 -415 225 -593 0 -43 -27 -141 -40 -141 -3 0 -47
42 -97 93 l-92 92 -15 95 c-48 301 -210 545 -466 701 l-65 40 40 -6 c22 -4 67
-14 100 -22z m-471 -20 c-80 -123 -142 -315 -204 -637 -20 -107 -22 -111 -91
-208 -39 -54 -73 -98 -76 -98 -14 0 7 311 27 402 33 157 122 380 190 478 9 14
15 30 13 36 -3 10 105 51 141 53 18 1 18 0 0 -26z m447 -59 c220 -163 346
-373 389 -651 l11 -72 -83 -102 -83 -102 -8 59 c-31 240 -62 384 -119 549 -38
113 -111 265 -155 321 -18 24 -29 44 -24 44 5 0 37 -21 72 -46z m-651 -1154
c21 -129 67 -326 109 -475 20 -70 20 -70 1 -45 -32 40 -166 317 -195 405 -30
89 -75 277 -75 315 0 16 25 60 63 112 l62 87 7 -132 c3 -73 16 -193 28 -267z"/>
<path d="M1180 767 c0 -4 11 -30 25 -57 27 -53 66 -182 125 -410 l37 -145 150
-3 150 -3 23 108 c55 266 82 381 99 423 11 25 21 56 23 70 l3 25 -317 0 c-175
0 -318 -4 -318 -8z m600 -28 c0 -32 -31 -79 -57 -86 -35 -10 -398 -10 -435 0
-18 5 -35 21 -48 47 -11 21 -20 41 -20 42 0 2 126 4 280 5 174 1 280 -2 280
-8z m-392 -124 c3 -3 32 -207 32 -232 0 -20 -5 -23 -38 -23 l-38 0 -34 123
c-18 67 -35 127 -37 133 -3 7 15 9 54 6 32 -2 59 -5 61 -7z m346 -12 c-3 -16
-16 -75 -28 -133 l-22 -105 -48 -3 c-42 -3 -47 -1 -42 15 2 10 15 68 27 130
l22 112 41 4 c22 2 44 4 48 5 4 1 5 -10 2 -25z m-147 -123 l-23 -115 -56 -3
-55 -3 -12 93 c-6 51 -14 107 -17 125 l-6 32 93 3 c57 2 95 -1 97 -7 1 -5 -8
-62 -21 -125z m74 -225 l-16 -76 -129 3 -130 3 -17 73 -16 72 161 0 162 0 -15
-75z"/>
</g>
</svg>
